<svg width="95" height="85" viewBox="0 0 95 85" fill="none" xmlns="http://www.w3.org/2000/svg">
<rect x="0.5" y="0.5" width="94" height="84" fill="url(#paint0_radial_246_648)" fill-opacity="0.12" stroke="url(#paint1_linear_246_648)"/>
<path d="M45.1606 45.1322C45.2118 43.96 45.5126 42.8787 46.063 41.8884C46.6134 40.8982 47.2639 40.0591 48.0147 39.3712C48.7654 38.6833 49.5144 38.0353 50.2616 37.4273C51.01 36.7927 51.6541 36.1001 52.194 35.3497C52.7351 34.5725 53.0249 33.7444 53.0632 32.8652C53.1214 31.5331 52.6994 30.5004 51.7972 29.767C50.9228 29.0082 49.753 28.5967 48.2877 28.5328C45.3571 28.4048 43.4225 29.6149 42.4838 32.1631L39.4036 30.2669C40.151 28.4311 41.3449 27.0685 42.9853 26.1792C44.6268 25.2633 46.4599 24.8495 48.4847 24.9379C50.8557 25.0415 52.8514 25.7959 54.4716 27.2012C56.1185 28.6078 56.8902 30.4965 56.7867 32.8676C56.7378 33.9866 56.4388 35.0278 55.8896 35.9915C55.3404 36.9551 54.6904 37.7809 53.9397 38.4688C53.1889 39.1567 52.4388 39.8313 51.6892 40.4925C50.9408 41.1272 50.2949 41.8597 49.7515 42.6901C49.2093 43.4939 48.9178 44.362 48.8771 45.2944L45.1606 45.1322ZM46.622 53.8442C45.9027 53.8128 45.301 53.533 44.8169 53.0047C44.3328 52.4764 44.1065 51.8526 44.1379 51.1333C44.1693 50.414 44.4492 49.8123 44.9774 49.3282C45.5057 48.8441 46.1295 48.6178 46.8488 48.6492C47.5948 48.6817 48.1965 48.9616 48.6539 49.4887C49.138 50.017 49.3644 50.6408 49.333 51.3601C49.3016 52.0794 49.0217 52.6811 48.4934 53.1652C47.9918 53.6504 47.368 53.8768 46.622 53.8442Z" fill="#4CEEC7" fill-opacity="0.15"/>
<defs>
<radialGradient id="paint0_radial_246_648" cx="0" cy="0" r="1" gradientUnits="userSpaceOnUse" gradientTransform="translate(47.5 42.5) rotate(83.7124) scale(146.94 204.163)">
<stop stop-color="#4CEEC7"/>
<stop offset="0.6" stop-color="#4CEEC7" stop-opacity="0.25"/>
</radialGradient>
<linearGradient id="paint1_linear_246_648" x1="47.5" y1="0" x2="47.5" y2="85" gradientUnits="userSpaceOnUse">
<stop stop-color="#4CEEC7"/>
<stop offset="1" stop-color="#2B8872" stop-opacity="0.45"/>
</linearGradient>
</defs>
</svg>
